<svg id="_609228790add698905c3d953_idea" data-name="609228790add698905c3d953_idea" xmlns="http://www.w3.org/2000/svg" width="104.7" height="104.7" viewBox="0 0 104.7 104.7">
  <rect id="Rectangle_18" data-name="Rectangle 18" width="104.7" height="104.7" rx="20" fill="#f2f0eb"/>
  <path id="Path_276" data-name="Path 276" d="M57,76.1H47.6a1.421,1.421,0,0,0-.6.2c-.2.1-.3.3-.5.4a1.421,1.421,0,0,0-.2.6,1.268,1.268,0,0,0,.1.6l.8,1.7a4.939,4.939,0,0,0,1.8,2,4.845,4.845,0,0,0,2.6.7h1a5.94,5.94,0,0,0,2.6-.7,4.939,4.939,0,0,0,1.8-2l.8-1.7a1.268,1.268,0,0,0,.1-.6,1.421,1.421,0,0,0-.2-.6,1,1,0,0,0-.5-.4c.3-.1,0-.2-.2-.2Z" fill="#cb78b1"/>
  <path id="Path_277" data-name="Path 277" d="M52.3,33.6a2.875,2.875,0,0,0,1.8-.7,2.41,2.41,0,0,0,.7-1.8V24.9a2.875,2.875,0,0,0-.7-1.8,2.41,2.41,0,0,0-1.8-.7,2.875,2.875,0,0,0-1.8.7,2.41,2.41,0,0,0-.7,1.8v6.2a2.875,2.875,0,0,0,.7,1.8A3.115,3.115,0,0,0,52.3,33.6Z" fill="#cb78b1"/>
  <path id="Path_278" data-name="Path 278" d="M75.3,31.9a2.41,2.41,0,0,0-1.8-.7,2.875,2.875,0,0,0-1.8.7l-4.4,4.4a5.547,5.547,0,0,0-.6.8,2.959,2.959,0,0,0-.2,1,3.553,3.553,0,0,0,.2,1A2.1,2.1,0,0,0,68,40.4a2.959,2.959,0,0,0,1,.2,3.553,3.553,0,0,0,1-.2,1.555,1.555,0,0,0,.8-.6l4.4-4.4a2.41,2.41,0,0,0,.7-1.8,1.627,1.627,0,0,0-.6-1.7Z" fill="#cb78b1"/>
  <path id="Path_279" data-name="Path 279" d="M79.8,52.3h-5A2.875,2.875,0,0,0,73,53a2.41,2.41,0,0,0-.7,1.8,2.875,2.875,0,0,0,.7,1.8,2.41,2.41,0,0,0,1.8.7h5a2.875,2.875,0,0,0,1.8-.7,2.41,2.41,0,0,0,.7-1.8,2.4,2.4,0,0,0-2.5-2.5Z" fill="#cb78b1"/>
  <path id="Path_280" data-name="Path 280" d="M37.3,36.3l-4.4-4.4a2.536,2.536,0,0,0-3.5,0,2.342,2.342,0,0,0-.7,1.7,2.41,2.41,0,0,0,.7,1.8l4.4,4.4a2.536,2.536,0,0,0,3.5,0,2.342,2.342,0,0,0,.7-1.7A2.41,2.41,0,0,0,37.3,36.3Z" fill="#cb78b1"/>
  <path id="Path_281" data-name="Path 281" d="M29.8,52.3h-5A2.875,2.875,0,0,0,23,53a2.41,2.41,0,0,0-.7,1.8,2.875,2.875,0,0,0,.7,1.8,2.41,2.41,0,0,0,1.8.7h5a2.875,2.875,0,0,0,1.8-.7,2.41,2.41,0,0,0,.7-1.8,2.4,2.4,0,0,0-2.5-2.5Z" fill="#cb78b1"/>
  <path id="Path_282" data-name="Path 282" d="M52.3,37.3a15.835,15.835,0,0,0-9.6,3.2,16.3,16.3,0,0,0-5.9,8.2,16.588,16.588,0,0,0,.1,10.1A15.855,15.855,0,0,0,43,66.9c.2.1.3.3.4.4a1.268,1.268,0,0,1,.1.6v1.9a2.875,2.875,0,0,0,.7,1.8,2.41,2.41,0,0,0,1.8.7H58.5a2.875,2.875,0,0,0,1.8-.7,2.41,2.41,0,0,0,.7-1.8V67.9a1.268,1.268,0,0,1,.1-.6.781.781,0,0,1,.4-.4,16.417,16.417,0,0,0,6.1-8.1,16.212,16.212,0,0,0-5.8-18.3,15.132,15.132,0,0,0-9.5-3.2Z" fill="#cb78b1"/>
</svg>
