<svg xmlns="http://www.w3.org/2000/svg" viewBox="0 0 624 538" width="624" height="538" preserveAspectRatio="xMidYMid meet" style="width: 100%; height: 100%; transform: translate3d(0px, 0px, 0px);"><defs><clipPath id="__lottie_element_14"><rect width="624" height="538" x="0" y="0"></rect></clipPath></defs><g clip-path="url(#__lottie_element_14)"><g transform="matrix(1,0,0,1,308,268)" opacity="1" style="display: block;"><g opacity="1" transform="matrix(1,0,0,1,0,0)"><path stroke-linecap="round" stroke-linejoin="miter" fill-opacity="0" stroke-miterlimit="10" stroke="rgb(255,255,255)" stroke-opacity="1" stroke-width="80" d=" M-267.7770080566406,0 C-267.7770080566406,0 270.0740051269531,0 270.0740051269531,0"></path></g></g><g transform="matrix(1,0,0,1,307.9999694824219,268)" opacity="1" style="display: block;"><g opacity="1" transform="matrix(1,0,0,1,0,0)"><path stroke-linecap="round" stroke-linejoin="miter" fill-opacity="0" stroke-miterlimit="10" stroke="rgb(255,255,255)" stroke-opacity="1" stroke-width="80" d=" M-7.2769999504089355,-179 C-7.2769999504089355,-179 270.2770080566406,-179 270.2770080566406,-179"></path></g></g><g transform="matrix(1,0,0,1,308,268)" opacity="1" style="display: block;"><g opacity="1" transform="matrix(1,0,0,1,0,0)"><path stroke-linecap="round" stroke-linejoin="miter" fill-opacity="0" stroke-miterlimit="10" stroke="rgb(255,255,255)" stroke-opacity="1" stroke-width="80" d=" M-269.7770080566406,178 C-269.7770080566406,178 7.7769999504089355,178 7.7769999504089355,178"></path></g></g></g></svg>