<svg id="_609228790add69719ac3d958_team" data-name="609228790add69719ac3d958_team" xmlns="http://www.w3.org/2000/svg" width="104.7" height="104.7" viewBox="0 0 104.7 104.7">
  <rect id="Rectangle_16" data-name="Rectangle 16" width="104.7" height="104.7" rx="20" fill="#f2f0eb"/>
  <path id="Path_265" data-name="Path 265" d="M38.6,61.2a1.268,1.268,0,0,0,.1-.6.85.85,0,0,0-.3-.5,13.815,13.815,0,0,0-16.8-.3,14.219,14.219,0,0,0-5.1,7c0,.1-.1.3,0,.4a.758.758,0,0,0,.2.4l.3.3a.6.6,0,0,0,.4.1H35.5a.764.764,0,0,0,.5-.2.55.55,0,0,0,.3-.5l.1-.5a21.088,21.088,0,0,1,2.2-5.6Z" fill="#cb78b1"/>
  <path id="Path_266" data-name="Path 266" d="M74.9,57a13.918,13.918,0,0,0-7.4,2.2c-.1.1-.2.1-.2.2a.367.367,0,0,0-.1.3V60c0,.1.1.2.1.3A17.706,17.706,0,0,1,70,66.6l.1.5a.85.85,0,0,0,.3.5c.2.1.3.2.5.2H87.4a.6.6,0,0,0,.4-.1c.1-.1.2-.1.3-.3.1-.1.1-.2.2-.4v-.4a13.791,13.791,0,0,0-5.1-7A14.8,14.8,0,0,0,74.9,57Z" fill="#cb78b1"/>
  <path id="Path_267" data-name="Path 267" d="M65.6,67.9a.6.6,0,0,0,.4-.1l.3-.3c.1-.1.1-.2.2-.4v-.4A13.77,13.77,0,0,0,53.1,57a13.836,13.836,0,0,0-8.3,2.8,14.286,14.286,0,0,0-5,7.1v.4c0,.1.1.2.1.3.1.1.2.2.3.2a.367.367,0,0,0,.3.1Z" fill="#cb78b1"/>
  <path id="Path_268" data-name="Path 268" d="M29.8,53.9a8.5,8.5,0,1,0-8.5-8.5A8.493,8.493,0,0,0,29.8,53.9Z" fill="#cb78b1"/>
  <path id="Path_269" data-name="Path 269" d="M74.9,53.9a8.5,8.5,0,1,0-8.5-8.5A8.493,8.493,0,0,0,74.9,53.9Z" fill="#cb78b1"/>
  <path id="Path_270" data-name="Path 270" d="M58,52.4a8.506,8.506,0,0,0-7.4-15.1,8.482,8.482,0,0,0-5.9,9.4,8.281,8.281,0,0,0,2.9,5.2A8.617,8.617,0,0,0,53.2,54,9.173,9.173,0,0,0,58,52.4Z" fill="#cb78b1"/>
</svg>
