<svg xmlns="http://www.w3.org/2000/svg" width="12.328" height="12.328" viewBox="0 0 12.328 12.328">
  <path id="instagram" d="M11.455,4.133a.74.74,0,1,0,.74.74A.74.74,0,0,0,11.455,4.133Zm2.835,1.492a4.678,4.678,0,0,0-.284-1.5,3.045,3.045,0,0,0-.715-1.091A2.9,2.9,0,0,0,12.2,2.327a4.5,4.5,0,0,0-1.5-.29C10.05,2,9.84,2,8.164,2s-1.886,0-2.539.037a4.5,4.5,0,0,0-1.5.29,2.946,2.946,0,0,0-1.091.709,2.9,2.9,0,0,0-.709,1.091,4.5,4.5,0,0,0-.29,1.5C2,6.278,2,6.487,2,8.164s0,1.886.037,2.539a4.5,4.5,0,0,0,.29,1.5,2.9,2.9,0,0,0,.709,1.091A2.946,2.946,0,0,0,4.126,14a4.5,4.5,0,0,0,1.5.29c.653.037.863.037,2.539.037s1.886,0,2.539-.037A4.5,4.5,0,0,0,12.2,14a2.9,2.9,0,0,0,1.091-.709,2.989,2.989,0,0,0,.715-1.091,4.678,4.678,0,0,0,.284-1.5c0-.653.037-.863.037-2.539s0-1.886-.037-2.539Zm-1.109,5a3.458,3.458,0,0,1-.21,1.146,1.886,1.886,0,0,1-.462.709,1.966,1.966,0,0,1-.709.462,3.458,3.458,0,0,1-1.146.21c-.616.031-.844.037-2.466.037s-1.849,0-2.466-.037a3.532,3.532,0,0,1-1.2-.185,2.016,2.016,0,0,1-.678-.462,1.849,1.849,0,0,1-.456-.709,3.415,3.415,0,0,1-.247-1.171c0-.616-.037-.844-.037-2.466s0-1.849.037-2.466a3.415,3.415,0,0,1,.216-1.171,1.849,1.849,0,0,1,.487-.678,1.935,1.935,0,0,1,.678-.493A3.532,3.532,0,0,1,5.7,3.146c.616,0,.844-.037,2.466-.037s1.849,0,2.466.037a3.458,3.458,0,0,1,1.146.21,1.886,1.886,0,0,1,.733.493,1.886,1.886,0,0,1,.462.678,3.458,3.458,0,0,1,.21,1.171c.031.616.037.844.037,2.466s-.006,1.849-.037,2.466ZM8.164,5a3.156,3.156,0,1,0,2.242.922A3.162,3.162,0,0,0,8.164,5Zm0,5.215a2.053,2.053,0,1,1,2.053-2.053,2.053,2.053,0,0,1-2.053,2.053Z" transform="translate(-2 -2)" fill="#5a5a5a"/>
</svg>
