<svg xmlns="http://www.w3.org/2000/svg" width="13.439" height="13.439" viewBox="0 0 13.439 13.439">
  <g id="telegram" transform="translate(-4 -4)">
    <path id="Path_290" data-name="Path 290" d="M10.719,4a6.719,6.719,0,1,0,6.719,6.719A6.719,6.719,0,0,0,10.719,4Z" fill="#5a5a5a"/>
    <path id="Path_291" data-name="Path 291" d="M18.046,14.336l-1.259,6.426a.392.392,0,0,1-.418.294.449.449,0,0,1-.293-.092L13.35,18.7l-1.334-.672L10.3,17.574s-.3-.088-.3-.34c0-.21.313-.31.313-.31l7.161-2.845A1.368,1.368,0,0,1,17.853,14c.1,0,.21.042.21.168A.982.982,0,0,1,18.046,14.336Z" transform="translate(-3.984 -6.64)" fill="#fff"/>
    <path id="Path_292" data-name="Path 292" d="M20.349,28.836,19.2,29.969a.22.22,0,0,1-.117.04A.166.166,0,0,1,19.007,30l.324-2Z" transform="translate(-9.965 -15.931)" fill="#b0bec5"/>
    <path id="Path_293" data-name="Path 293" d="M20.669,18.066a.168.168,0,0,0-.236-.031L16,20.688s.708,1.979.815,2.322.195.351.195.351l.324-2,3.3-3.056A.168.168,0,0,0,20.669,18.066Z" transform="translate(-7.968 -9.297)" fill="#cfd8dc"/>
  </g>
</svg>
