<svg xmlns="http://www.w3.org/2000/svg" width="12.98" height="10.576" viewBox="0 0 12.98 10.576">
  <path id="Path_289" data-name="Path 289" d="M17.993,11.486v0H18.6l.222.045a2.375,2.375,0,0,1,.4.114,2.867,2.867,0,0,1,.351.164,3.332,3.332,0,0,1,.308.191,1.894,1.894,0,0,1,.246.2.34.34,0,0,0,.336.056,4.484,4.484,0,0,0,.492-.147q.263-.094.521-.211t.314-.149l.059-.035,0,0,.012-.006.012-.006.012-.006.012-.006,0,0,0,0,0,0,0,0,.012,0,.012,0,0,.018,0,.018-.006.018-.006.018-.006.012-.006.012-.006.018a.414.414,0,0,0-.012.047,1.966,1.966,0,0,1-.111.235,2.94,2.94,0,0,1-.263.417,2.047,2.047,0,0,1-.283.319q-.126.109-.167.153a.5.5,0,0,1-.1.082l-.059.039-.012.006-.012.006,0,0,0,0,0,0,0,0-.012.006-.012.006,0,0,0,0,0,0,0,0,0,0,0,0,0,0,0,0h.059l.328-.07a5.853,5.853,0,0,0,.626-.17l.316-.106.035-.012.018-.006.012-.006.012-.006.012-.006.012-.006.023,0,.023,0v.023l-.006,0-.006,0,0,0,0,0,0,0,0,0,0,0,0,0,0,0,0,0,0,0,0,0-.006.012-.006.012,0,0-.149.2a1.649,1.649,0,0,1-.158.2q-.012,0-.033.035a3.371,3.371,0,0,1-.248.262,5.9,5.9,0,0,1-.447.407.557.557,0,0,0-.222.441q0,.261-.027.589t-.088.71a8.491,8.491,0,0,1-.2.863,7.856,7.856,0,0,1-.328.939,7.319,7.319,0,0,1-.4.822q-.211.364-.386.616t-.357.475q-.181.223-.459.5l-.3.305q-.027.026-.229.193t-.433.336A5.008,5.008,0,0,1,17.35,21q-.193.112-.466.255a5.54,5.54,0,0,1-.588.268q-.316.123-.667.229a6.079,6.079,0,0,1-.679.164q-.328.059-.743.1l-.415.041v.006h-.761v-.006l-.1-.006-.164-.012q-.064-.006-.486-.065t-.661-.117q-.24-.059-.714-.223A6.937,6.937,0,0,1,10.1,21.3q-.336-.167-.421-.211t-.19-.108l-.105-.065,0,0,0,0,0,0,0,0L9.356,20.9l-.012-.006,0,0,0,0,0,0,0,0,0,0,0,0H9.321v-.023l.012,0,.012,0,.053.006q.053.006.287.018t.5,0a5.217,5.217,0,0,0,.538-.053,6.052,6.052,0,0,0,.65-.141,4.793,4.793,0,0,0,.688-.237q.312-.139.445-.207a4.323,4.323,0,0,0,.4-.249l.269-.182,0,0,0,0,0,0,0,0,0,0,0,0,0,0,0,0,.012,0,.012,0,0-.012,0-.012,0,0,0,0-.094-.006-.181-.012a1.756,1.756,0,0,1-.275-.053,2.634,2.634,0,0,1-.4-.141,3.11,3.11,0,0,1-.421-.223,2.073,2.073,0,0,1-.3-.215q-.09-.085-.234-.239a2.372,2.372,0,0,1-.248-.32,2.881,2.881,0,0,1-.2-.379l-.1-.214-.006-.018-.006-.018,0-.012,0-.012.018,0,.018,0,.129.018a2.852,2.852,0,0,0,.4.012,3.117,3.117,0,0,0,.38-.023q.105-.018.129-.023l.023-.006.029-.006.029-.006,0,0,0,0,0,0,0,0-.023-.006-.023-.006-.023-.006-.023-.006-.023-.006-.082-.023q-.058-.018-.316-.129a2.414,2.414,0,0,1-.41-.217,2.829,2.829,0,0,1-.29-.231,3.319,3.319,0,0,1-.3-.326,2.348,2.348,0,0,1-.293-.464,2.822,2.822,0,0,1-.193-.5,2.731,2.731,0,0,1-.084-.487l-.021-.246.012,0,.012,0,.012.006.012.006.012.006.012.006.181.082a2.284,2.284,0,0,0,.451.141q.269.059.322.065l.053.006h.105l0,0,0,0,0,0,0,0,0,0,0,0,0,0,0,0-.012-.006-.012-.006,0,0,0,0,0,0,0,0-.012-.006-.012-.006,0,0-.1-.075a1.536,1.536,0,0,1-.2-.191q-.105-.117-.211-.246a1.906,1.906,0,0,1-.187-.276,3.352,3.352,0,0,1-.173-.373,2.657,2.657,0,0,1-.137-.454,2.6,2.6,0,0,1-.053-.452A2.851,2.851,0,0,1,9.871,13a2.5,2.5,0,0,1,.07-.358,2.8,2.8,0,0,1,.152-.423l.1-.223.006-.018.006-.018,0,0,0,0,0,0,0,0,0,0,0,0,0,0,0,0,0,0,0,0,0,0,0,0,.006.012.006.012,0,0,0,0,.158.176q.158.176.375.393a2.208,2.208,0,0,0,.24.225.172.172,0,0,1,.059.054,2.39,2.39,0,0,0,.234.208q.2.164.521.381t.714.428a6.954,6.954,0,0,0,.843.381q.451.17.632.223t.62.135q.439.082.661.106t.3.027l.082,0,0-.018,0-.018-.023-.147a2.769,2.769,0,0,1-.023-.411,2.7,2.7,0,0,1,.041-.487,2.89,2.89,0,0,1,.123-.452,2.416,2.416,0,0,1,.16-.367,3.629,3.629,0,0,1,.208-.313,2.527,2.527,0,0,1,.334-.364,2.463,2.463,0,0,1,.468-.335,3.04,3.04,0,0,1,.486-.223,2.258,2.258,0,0,1,.375-.1A1.292,1.292,0,0,0,17.993,11.486Z" transform="translate(-9.321 -11.484)" fill="#5a5a5a"/>
</svg>
