<svg xmlns="http://www.w3.org/2000/svg" xmlns:xlink="http://www.w3.org/1999/xlink" width="42" height="42" viewBox="0 0 42 42">
  <defs>
    <filter id="Ellipse_10" x="-9" y="-6" width="60" height="60" filterUnits="userSpaceOnUse">
      <feOffset dy="3" input="SourceAlpha"/>
      <feGaussianBlur stdDeviation="3" result="blur"/>
      <feFlood flood-opacity="0.161"/>
      <feComposite operator="in" in2="blur"/>
      <feComposite in="SourceGraphic"/>
    </filter>
    <clipPath id="clip-path">
      <g transform="matrix(1, 0, 0, 1, 0, 0)" filter="url(#Ellipse_10)">
        <circle id="Ellipse_10-2" data-name="Ellipse 10" cx="21" cy="21" r="21" transform="translate(183 10180)" fill="#fff"/>
      </g>
    </clipPath>
  </defs>
  <g id="Mask_Group_4" data-name="Mask Group 4" transform="translate(-183 -10180)" clip-path="url(#clip-path)">
    <g id="_609228790add69ebdec3d93e_icon-social-media-02-designer-template" data-name="609228790add69ebdec3d93e_icon-social-media-02-designer-template" transform="translate(183 10180)">
      <rect id="Rectangle_60" data-name="Rectangle 60" width="42" height="42" fill="#1ba8ff"/>
      <path id="Path_287" data-name="Path 287" d="M24.928,11.488v0h1.1l.4.08a4.274,4.274,0,0,1,.727.2,5.159,5.159,0,0,1,.632.3,6,6,0,0,1,.554.344,3.408,3.408,0,0,1,.442.368.612.612,0,0,0,.6.1,8.07,8.07,0,0,0,.885-.264q.474-.169.937-.38t.564-.268l.105-.063,0-.006.021-.011.021-.011.021-.011.021-.011,0-.006.006,0,.006,0,0-.006.021-.006.021,0,0,.032-.006.032-.011.032-.01.032-.011.021-.011.021-.011.032a.745.745,0,0,0-.021.084,3.539,3.539,0,0,1-.2.422,5.291,5.291,0,0,1-.474.75,3.685,3.685,0,0,1-.51.575q-.228.2-.3.275a.9.9,0,0,1-.179.148l-.105.07-.021.011-.021.011,0,.006-.006,0-.006,0,0,.006-.021.011-.021.011,0,.006-.006,0-.006,0,0,.006,0,.006-.006,0-.006,0,0,.006h.105l.59-.127a10.533,10.533,0,0,0,1.127-.306l.569-.19.063-.021.032-.011.021-.011.021-.011.021-.011.021-.011.042-.006.042,0v.042l-.011,0-.011.006,0,.006-.006,0-.006,0,0,.006,0,.006-.006,0-.006,0,0,.006,0,.006-.006,0-.011.021-.011.021-.006,0-.268.359a2.967,2.967,0,0,1-.284.359q-.021.006-.059.063a6.067,6.067,0,0,1-.447.471,10.617,10.617,0,0,1-.8.733,1,1,0,0,0-.4.794q-.006.469-.048,1.06t-.158,1.278a15.281,15.281,0,0,1-.358,1.553,14.136,14.136,0,0,1-.59,1.69,13.17,13.17,0,0,1-.727,1.479q-.379.655-.7,1.109T27.1,25.7q-.326.4-.826.9t-.548.549q-.048.047-.413.346t-.779.6a9.014,9.014,0,0,1-.762.5q-.348.2-.838.458a9.97,9.97,0,0,1-1.057.482q-.569.222-1.2.412a10.94,10.94,0,0,1-1.222.3q-.59.106-1.337.18l-.748.074v.011H16v-.011l-.179-.011q-.179-.011-.295-.021t-.874-.116q-.758-.106-1.19-.211t-1.285-.4a12.485,12.485,0,0,1-1.46-.6q-.6-.3-.758-.38t-.341-.194l-.19-.116,0-.006-.006,0-.006,0,0-.006-.021-.011-.021-.011,0-.006-.006,0-.006,0,0-.006,0-.006-.006,0H9.321v-.042l.021,0,.021.006.095.011q.095.011.516.032t.9,0a9.388,9.388,0,0,0,.969-.1,10.891,10.891,0,0,0,1.169-.253,8.625,8.625,0,0,0,1.239-.427q.562-.249.8-.372a7.778,7.778,0,0,0,.72-.448l.484-.327,0-.006.006,0,.006,0,0-.006,0-.006.006,0,.006,0,0-.006.021-.006.021,0,0-.021.006-.021.006,0,0-.006-.168-.011-.326-.021a3.161,3.161,0,0,1-.495-.1,4.741,4.741,0,0,1-.727-.253,5.6,5.6,0,0,1-.758-.4,3.73,3.73,0,0,1-.533-.387q-.162-.152-.421-.431a4.269,4.269,0,0,1-.447-.577,5.184,5.184,0,0,1-.362-.682l-.175-.384-.01-.032-.011-.032-.006-.021,0-.021.032,0,.032.006.232.032a5.133,5.133,0,0,0,.727.021,5.611,5.611,0,0,0,.685-.042q.19-.032.232-.042l.042-.011.053-.011L14,22.965l0-.006.006,0,.006,0,0-.006-.042-.011-.042-.011-.042-.011-.042-.011-.042-.011-.147-.042q-.105-.032-.569-.232a4.345,4.345,0,0,1-.737-.391,5.091,5.091,0,0,1-.522-.416,5.974,5.974,0,0,1-.541-.587,4.226,4.226,0,0,1-.527-.834,5.078,5.078,0,0,1-.348-.908,4.914,4.914,0,0,1-.152-.877l-.038-.444.021,0,.021.006.021.011.021.011.021.011.021.011.326.148a4.111,4.111,0,0,0,.811.253q.484.106.579.116l.095.011h.19l0-.006-.006,0-.006,0,0-.006,0-.006-.006,0-.006,0,0-.006-.021-.011-.021-.011,0-.006-.006,0-.006,0,0-.006-.021-.011-.021-.011,0-.006-.181-.135a2.765,2.765,0,0,1-.362-.344q-.19-.211-.379-.444a3.429,3.429,0,0,1-.337-.5,6.033,6.033,0,0,1-.312-.672,4.783,4.783,0,0,1-.246-.817,4.669,4.669,0,0,1-.095-.813,5.131,5.131,0,0,1,.021-.687,4.5,4.5,0,0,1,.126-.644,5.033,5.033,0,0,1,.274-.761l.179-.4.011-.032.011-.032.006,0,0-.006,0-.006.006,0,.006,0,0,.006,0,.006.006,0,.006,0,0,.006,0,.006.006,0,.01.021.011.021.006,0,0,.006.284.317q.284.317.674.708a3.974,3.974,0,0,0,.432.406.309.309,0,0,1,.105.1,4.3,4.3,0,0,0,.421.374q.358.3.937.687t1.285.771a12.515,12.515,0,0,0,1.517.687q.811.306,1.137.4t1.116.243q.79.148,1.19.19t.548.049l.147,0,0-.032-.006-.032-.042-.264a4.983,4.983,0,0,1-.042-.739,4.86,4.86,0,0,1,.074-.877A5.2,5.2,0,0,1,21,14.6a4.348,4.348,0,0,1,.289-.661,6.532,6.532,0,0,1,.375-.564,4.548,4.548,0,0,1,.6-.655,4.432,4.432,0,0,1,.843-.6,5.47,5.47,0,0,1,.874-.4,4.064,4.064,0,0,1,.674-.18A2.325,2.325,0,0,0,24.928,11.488Z" fill="#fff"/>
    </g>
  </g>
</svg>
