<svg xmlns="http://www.w3.org/2000/svg" width="15.681" height="11.591" viewBox="0 0 15.681 11.591">
  <path id="discord" d="M15.508,8.284A7.515,7.515,0,0,0,11.912,7a.338.338,0,0,0-.337.2,2.262,2.262,0,0,0-.1.284,8.371,8.371,0,0,1,3,1.076.341.341,0,1,1-.36.579,8.715,8.715,0,0,0-8.538,0,.341.341,0,0,1-.36-.579,8.367,8.367,0,0,1,3-1.075,2.826,2.826,0,0,0-.1-.285A.336.336,0,0,0,7.769,7,7.534,7.534,0,0,0,4.155,8.3C3.437,8.963,2,12.846,2,16.2a.342.342,0,0,0,.045.169c.991,1.742,3.7,2.2,4.312,2.217h.011a.341.341,0,0,0,.276-.14l.623-.858a6.618,6.618,0,0,1-2.59-1.216.341.341,0,0,1,.451-.511A7.526,7.526,0,0,0,9.84,17.226a7.54,7.54,0,0,0,4.714-1.361.341.341,0,0,1,.45.511,6.618,6.618,0,0,1-2.59,1.216l.623.858a.341.341,0,0,0,.276.14h.011c.617-.02,3.321-.475,4.312-2.217a.342.342,0,0,0,.045-.169C17.681,12.846,16.244,8.963,15.508,8.284ZM7.625,14.84a1.286,1.286,0,0,1-1.193-1.364,1.286,1.286,0,0,1,1.193-1.364,1.286,1.286,0,0,1,1.193,1.364A1.286,1.286,0,0,1,7.625,14.84Zm4.432,0a1.286,1.286,0,0,1-1.193-1.364,1.286,1.286,0,0,1,1.193-1.364,1.286,1.286,0,0,1,1.193,1.364A1.286,1.286,0,0,1,12.056,14.84Z" transform="translate(-2 -6.999)" fill="#5a5a5a"/>
</svg>
