<svg xmlns="http://www.w3.org/2000/svg" width="14" height="14" viewBox="0 0 14 14">
  <g id="reddit" transform="translate(-0.005 0.016)">
    <path id="Path_294" data-name="Path 294" d="M7-.016a7,7,0,1,0,7,7,7,7,0,0,0-7-7Z" fill="#5a5a5a"/>
    <path id="Path_295" data-name="Path 295" d="M8.707,12.269a.758.758,0,1,1,.758-.758A.759.759,0,0,1,8.707,12.269Zm5.484-.528a1.963,1.963,0,0,1,.017.255c0,1.576-1.885,2.858-4.2,2.858S5.8,13.571,5.8,12a1.992,1.992,0,0,1,.019-.266A1.16,1.16,0,1,1,7.2,9.865a5.4,5.4,0,0,1,2.6-.724l.74-2.1,1.774.424a.969.969,0,1,1-.109.546L10.907,7.7,10.4,9.15a5.337,5.337,0,0,1,2.42.721,1.161,1.161,0,1,1,1.376,1.87ZM5.906,10.8a.6.6,0,0,0,.1.326,2.753,2.753,0,0,1,.7-.9.606.606,0,0,0-.8.573ZM13.651,12c0-1.269-1.636-2.3-3.646-2.3S6.359,10.727,6.359,12s1.636,2.3,3.646,2.3S13.651,13.265,13.651,12Zm-.343-1.767a2.742,2.742,0,0,1,.706.909.6.6,0,0,0,.106-.34.606.606,0,0,0-.812-.569Zm-.542-2.313a.413.413,0,1,0,.413-.394.413.413,0,0,0-.413.394ZM11.4,12.862a.276.276,0,0,0-.2.081A1.77,1.77,0,0,1,10,13.3a1.628,1.628,0,0,1-1.152-.344.278.278,0,1,0-.421.364,1.318,1.318,0,0,0,.391.283A2.585,2.585,0,0,0,10,13.857a2.737,2.737,0,0,0,1.2-.249,1.5,1.5,0,0,0,.411-.276.277.277,0,1,0-.2-.47ZM11.4,10.753a.758.758,0,1,0,.758.758A.759.759,0,0,0,11.4,10.753Z" transform="translate(-3.006 -3.916)" fill="#dfabcf"/>
  </g>
</svg>
