<svg id="_609228790add69743ac3d952_routing" data-name="609228790add69743ac3d952_routing" xmlns="http://www.w3.org/2000/svg" width="104.7" height="104.7" viewBox="0 0 104.7 104.7">
  <rect id="Rectangle_17" data-name="Rectangle 17" width="104.7" height="104.7" rx="20" fill="#f2f0eb"/>
  <path id="Path_271" data-name="Path 271" d="M29.3,80A7.3,7.3,0,1,0,22,72.7,7.277,7.277,0,0,0,29.3,80Z" fill="#cb78b1"/>
  <path id="Path_272" data-name="Path 272" d="M58.7,65.4H46.9a1.538,1.538,0,0,0-1.5,1.5V78.6a1.538,1.538,0,0,0,1.5,1.5H58.6a1.538,1.538,0,0,0,1.5-1.5V66.8A1.367,1.367,0,0,0,58.7,65.4Z" fill="#cb78b1"/>
  <path id="Path_273" data-name="Path 273" d="M83.1,77.7,77.7,66.9a.9.9,0,0,0-.6-.6,1.2,1.2,0,0,0-.8-.2,1.884,1.884,0,0,0-.8.2,1.7,1.7,0,0,0-.6.6L69.5,77.7a1.884,1.884,0,0,0-.2.8,2.354,2.354,0,0,0,.2.8,1.7,1.7,0,0,0,.6.6,1.884,1.884,0,0,0,.8.2H81.7a2.354,2.354,0,0,0,.8-.2,1.7,1.7,0,0,0,.6-.6,1.884,1.884,0,0,0,.2-.8,1.2,1.2,0,0,0-.2-.8Z" fill="#cb78b1"/>
  <path id="Path_274" data-name="Path 274" d="M29.3,62.4a3.076,3.076,0,0,0,3-3V55.7a.367.367,0,0,1,.1-.3.215.215,0,0,1,.2-.2l.2-.2c.1,0,.2-.1.3-.1H49.3a.684.684,0,0,1,.7.7v3.7a3,3,0,0,0,6,0V55.6a.367.367,0,0,1,.1-.3.215.215,0,0,1,.2-.2l.2-.2c.1,0,.2-.1.3-.1H73a.684.684,0,0,1,.7.7v3.7a3,3,0,0,0,6,0V53.3a4.439,4.439,0,0,0-4.4-4.4H30.8a4.439,4.439,0,0,0-4.4,4.4v5.9a2.878,2.878,0,0,0,.9,2.1,2.21,2.21,0,0,0,2,1.1Z" fill="#cb78b1"/>
  <path id="Path_275" data-name="Path 275" d="M51.7,25.7,43,34.4a1.569,1.569,0,0,0,0,2.2l8.7,8.7a1.569,1.569,0,0,0,2.2,0l8.7-8.7a1.569,1.569,0,0,0,0-2.2l-8.7-8.7A1.569,1.569,0,0,0,51.7,25.7Z" fill="#cb78b1"/>
</svg>
